<svg width="14" height="14" viewBox="0 0 14 14" fill="none" xmlns="http://www.w3.org/2000/svg">
<path d="M12.0607 5.7998C12.3189 6.8956 12.2159 8.04588 11.7671 9.0779C11.3183 10.1099 10.548 10.968 9.5718 11.5232C8.59564 12.0785 7.46632 12.3009 6.35343 12.1572C5.24054 12.0134 4.20415 11.5113 3.3999 10.7261" stroke="#FFD978" stroke-width="2" stroke-linecap="round"/>
<path d="M1.91691 8.19975C1.8389 7.83149 1.79965 7.45588 1.79982 7.07921C1.79776 6.04437 2.09618 5.03183 2.65783 4.16794C3.21949 3.30404 4.01951 2.62704 4.95807 2.22142C5.89662 1.8158 6.93216 1.69951 7.93546 1.88707C8.93876 2.07463 9.86539 2.55773 10.5997 3.27609" stroke="#FFD978" stroke-width="2" stroke-linecap="round"/>
<path d="M8.19971 3.39998L10.5997 3.28362L10.1997 1" stroke="#FFD978" stroke-width="2" stroke-linecap="round"/>
<path d="M5.79988 10.5996L3.3999 10.6L3.5874 12.9996" stroke="#FFD978" stroke-width="2" stroke-linecap="round"/>
</svg>
