<svg width="17" height="16" viewBox="0 0 17 16" fill="none" xmlns="http://www.w3.org/2000/svg">
<path d="M8.22471 -1.55201e-07L8.77529 -1.07067e-07C9.4516 -4.79431e-08 10 0.51072 10 1.14105L10 14L7 14L7 1.14105C7.00024 0.51072 7.54841 -2.14325e-07 8.22471 -1.55201e-07Z" fill="#FFD978"/>
<path d="M0.0486292 9.61105C0.000289626 9.57421 -0.0140879 9.50914 0.0149158 9.45699C0.941549 7.78595 2.88728 7.49839 4.11758 8.87517L8.49988 13.7794L12.8824 8.87518C14.1127 7.49839 16.0585 7.78595 16.9851 9.45699C17.0141 9.50938 16.9997 9.57445 16.9514 9.61106L8.60498 15.9648C8.54326 16.0117 8.45649 16.0117 8.39477 15.9648L0.0486292 9.61105Z" fill="#FFD978"/>
</svg>
