<svg width="16" height="18" viewBox="0 0 16 18" fill="none" xmlns="http://www.w3.org/2000/svg">
<path d="M16 8.72471L16 9.27529C16 9.9516 15.4893 10.5 14.8589 10.5L2 10.5L2 7.5L14.8589 7.5C15.4893 7.50024 16 8.04841 16 8.72471Z" fill="#FF733A"/>
<path d="M6.38895 0.548629C6.42579 0.500291 6.49086 0.485913 6.54301 0.514916C8.21405 1.44155 8.50161 3.38728 7.12483 4.61758L2.22056 8.99988L7.12482 13.3824C8.50161 14.6127 8.21405 16.5585 6.54301 17.4851C6.49062 17.5141 6.42555 17.4997 6.38894 17.4514L0.0351683 9.10498C-0.0117213 9.04326 -0.0117213 8.95649 0.0351683 8.89477L6.38895 0.548629Z" fill="#FF733A"/>
</svg>
